<svg xmlns="http://www.w3.org/2000/svg" fill="none" viewBox="0 0 200 40"><path fill="#fff" d="M102.964 19.427c-1.651 0-2.841.548-4.048 1.105v12.615c1.156.111 1.819.111 2.915.111 3.964 0 4.508-1.834 4.508-4.395v-6.025c0-1.891-.622-3.41-3.375-3.41zM76.64 18.74c-2.75 0-3.378 1.526-3.378 3.415v1.062h6.752v-1.062c0-1.89-.627-3.415-3.374-3.415zM25.644 31.87c0 1.495.698 2.272 2.239 2.272 1.652 0 2.63-.545 3.836-1.104v-2.993h-3.613c-1.71 0-2.462.322-2.462 1.825zm102.928-12.442c-2.755 0-3.71 1.52-3.71 3.411v6.902c0 1.897.955 3.42 3.71 3.42 2.747 0 3.709-1.523 3.709-3.42v-6.902c-.001-1.891-.963-3.41-3.709-3.41zM12.144 39.61H4.046V19.803H0v-6.825h4.047v-4.1C4.047 3.31 6.331 0 12.822 0h5.404v6.827h-3.378c-2.527 0-2.694.954-2.694 2.734l-.01 3.416h6.119l-.716 6.825h-5.403v19.807zm27.675.051H33.07l-.292-1.724c-3.081 1.724-5.831 2.004-7.646 2.004-4.95 0-7.584-3.341-7.584-7.962 0-5.452 3.074-7.397 8.574-7.397h5.597v-1.179c0-2.783-.315-3.6-4.55-3.6h-6.924l.676-6.824h7.569c9.292 0 11.33 2.966 11.33 10.48V39.66zm22.95-19.357c-4.2-.728-5.405-.888-7.426-.888-3.63 0-4.727.81-4.727 3.924v5.893c0 3.114 1.097 3.927 4.727 3.927 2.02 0 3.227-.162 7.426-.893v6.657c-3.678.834-6.075 1.053-8.1 1.053-8.694 0-12.15-4.62-12.15-11.294V23.9c0-6.68 3.456-11.309 12.15-11.309 2.025 0 4.422.22 8.1 1.057v6.654zm25.342 8.378h-14.85v.55c0 3.115 1.098 3.928 4.727 3.928 3.262 0 5.253-.162 9.445-.893v6.657c-4.043.834-6.15 1.053-10.116 1.053-8.695 0-12.153-4.62-12.153-11.294v-5.467c0-5.84 2.565-10.623 11.475-10.623s11.472 4.728 11.472 10.623v5.466zm26.324.127c0 6.45-1.825 11.156-12.878 11.156-3.991 0-6.332-.355-10.737-1.04V2.05L98.915.686v12.898c1.749-.657 4.013-.99 6.074-.99 8.096 0 9.445 3.667 9.445 9.561v6.653h.001zm25.949.14c0 5.565-2.273 10.962-11.786 10.962-9.516 0-11.833-5.397-11.833-10.962v-5.373c0-5.567 2.317-10.966 11.833-10.966 9.513 0 11.786 5.399 11.786 10.966v5.373zm25.932 0c0 5.565-2.276 10.962-11.786 10.962-9.517 0-11.833-5.397-11.833-10.962v-5.373c0-5.567 2.316-10.966 11.833-10.966 9.51 0 11.786 5.399 11.786 10.966v5.373zm26.613 10.661h-8.775l-7.421-12.519V39.61h-8.098V2.049l8.098-1.364v24.18l7.421-11.887h8.775l-8.102 12.971 8.102 13.66zm-38.427-20.182c-2.75 0-3.705 1.52-3.705 3.411v6.902c0 1.897.955 3.42 3.705 3.42 2.746 0 3.718-1.523 3.718-3.42v-6.902c0-1.891-.972-3.41-3.718-3.41zm43.049 15.51c1.363 0 2.449 1.124 2.449 2.527 0 1.425-1.087 2.536-2.46 2.536-1.366 0-2.474-1.111-2.474-2.536 0-1.403 1.108-2.526 2.474-2.526h.011zm-.011.393c-1.098 0-1.997.956-1.997 2.134 0 1.2.9 2.143 2.008 2.143 1.109.011 1.994-.943 1.994-2.132s-.885-2.145-1.994-2.145h-.011zm-.465 3.605h-.445v-2.82c.234-.032.456-.065.789-.065.422 0 .698.09.868.212.163.124.251.314.251.583 0 .372-.242.596-.541.687v.021c.243.046.409.268.465.683.065.439.133.606.176.698h-.465c-.066-.092-.134-.35-.189-.72-.065-.359-.245-.494-.6-.494h-.308v1.215h-.001zm0-1.56h.322c.365 0 .675-.136.675-.485 0-.247-.176-.493-.675-.493-.145 0-.246.011-.322.021v.956z"/></svg>