<svg xmlns="http://www.w3.org/2000/svg" fill="none" viewBox="0 0 208 65"><g filter="url(#a)"><path fill="#fff" d="M14.296.195C10.226 1.93 5.698 6.776 4.273 12.898c-1.78 7.703 5.698 10.968 6.309 9.897.712-1.276-1.323-1.684-1.78-5.663-.56-5.152 1.83-10.968 4.883-13.468.56-.459.56.204.56 1.378 0 2.193-.102 21.63-.102 25.711 0 5.51-.203 7.244-.61 8.928-.407 1.734-1.069 2.907-.56 3.367.56.51 2.95-.715 4.324-2.653 1.68-2.347 2.239-5.102 2.34-8.163.102-3.673.102-9.488.102-12.753 0-3.061.051-11.938-.05-17.294C19.638.858 16.026-.52 14.296.195zm145.35 25.763c-.153 2.856-.764 5.101-1.527 6.683-1.526 3.06-4.68 3.979-6.003-.409-.712-2.397-.763-6.376-.254-9.743.508-3.418 2.035-5.97 4.477-5.714 2.442.255 3.561 3.367 3.307 9.183zM118.691 43.71c-.051 4.744-.763 8.927-2.391 10.1-2.289 1.735-5.291.409-4.68-3.06.559-3.061 3.205-6.224 7.071-10.05v3.01zm-.661-17.804c-.153 2.601-.814 5.203-1.526 6.683-1.527 3.06-4.681 4.03-6.004-.409-.915-3.01-.661-6.887-.254-9.335.56-3.163 1.984-6.122 4.477-6.122 2.493.051 3.663 2.755 3.307 9.183zm-23.708 0c-.153 2.754-.661 5.05-1.526 6.734-1.577 3.01-4.63 3.979-6.003-.409-.967-3.162-.662-7.448-.255-9.794.61-3.47 2.137-5.918 4.477-5.663 2.442.255 3.612 3.367 3.307 9.132zm108.771 3.213c-.611 0-.865.613-1.069 1.633-.763 3.571-1.577 4.387-2.645 4.387-1.17 0-2.239-1.785-2.493-5.356-.203-2.806-.203-7.959.102-13.06.051-1.071-.255-2.092-3.053-3.112-1.221-.459-2.95-1.071-3.866 1.02-2.493 6.02-3.46 10.764-3.663 12.703 0 .102-.153.102-.153-.102-.152-1.53-.458-4.387-.509-10.305 0-1.173-.254-2.143-1.526-2.959-.814-.51-3.307-1.428-4.222-.357-.764.918-1.679 3.316-2.646 6.173-.763 2.346-1.272 3.928-1.272 3.928V15.04c0-.918-.61-1.224-.814-1.275-.814-.255-2.493-.663-3.154-.663-.865 0-1.068.46-1.068 1.173 0 .102-.153 8.265-.153 13.978v.817c-.458 2.652-2.035 6.223-3.714 6.223-1.679 0-2.493-1.48-2.493-8.315 0-3.98.102-5.714.153-8.57.051-1.633.102-2.908.102-3.215 0-.867-1.527-1.326-2.239-1.479-.712-.153-1.323-.255-1.831-.204-.662.051-1.171.51-1.171 1.122v.97c-.864-1.378-2.289-2.347-3.256-2.653-2.543-.765-5.189-.102-7.224 2.704-1.577 2.244-2.544 4.744-2.951 8.417-.254 2.653-.203 5.357.306 7.652-.611 2.551-1.679 3.622-2.9 3.622-1.73 0-3.002-2.857-2.849-7.805.102-3.265.763-5.56 1.475-8.877.305-1.428.051-2.142-.559-2.856-.56-.663-1.781-.97-3.511-.561-1.221.306-3.001.612-4.629.867 0 0 .101-.408.152-1.071.407-3.623-3.51-3.316-4.731-2.143-.763.663-1.272 1.48-1.425 2.959-.305 2.295 1.577 3.418 1.577 3.418-.61 2.857-2.136 6.53-3.713 9.233-.814 1.429-1.476 2.5-2.29 3.622v-1.275c0-5.969.051-10.662.102-12.346.051-1.632.102-2.907.102-3.162 0-.664-.407-.868-1.17-1.225a8.658 8.658 0 0 0-2.392-.51c-1.068-.102-1.729.51-1.729 1.173v.919c-.865-1.378-2.29-2.347-3.256-2.653-2.544-.765-5.19-.102-7.225 2.704-1.577 2.244-2.645 5.356-2.95 8.366-.255 2.806-.204 5.204.152 7.193-.407 1.99-1.577 4.081-2.9 4.081-1.678 0-2.645-1.48-2.645-8.315 0-3.98.102-5.714.153-8.57.05-1.633.101-2.908.101-3.214 0-.868-1.526-1.327-2.238-1.48-.763-.153-1.374-.255-1.882-.204-.662.051-1.12.612-1.12 1.071v1.02c-.865-1.377-2.29-2.346-3.256-2.652-2.543-.765-5.189-.051-7.224 2.704-1.323 1.836-2.391 3.877-2.95 8.315a30.504 30.504 0 0 0-.204 3.622c-.509 3.214-2.85 6.938-4.732 6.938-1.119 0-2.187-2.143-2.187-6.785 0-6.122.356-14.845.458-15.712 0 0 2.39-.051 2.849-.051 1.17 0 2.289 0 3.866-.051.814-.051 1.577-2.908.763-3.265-.356-.153-3.001-.306-4.07-.306-.865 0-3.307-.204-3.307-.204s.204-5.816.255-6.428c.05-.51-.61-.765-.967-.919-.916-.408-1.73-.56-2.696-.765-1.323-.255-1.933 0-2.086 1.123-.204 1.734-.255 6.785-.255 6.785-.966 0-4.375-.205-5.341-.205-.916 0-1.883 3.98-.662 3.98 1.476.05 4.02.102 5.698.153 0 0-.05 8.876-.05 11.63v.868C67.256 29.325 64 31.926 64 31.926c.712-3.214-.713-5.611-3.307-7.652a195.478 195.478 0 0 0-4.935-3.724s1.22-1.224 2.29-3.622c.762-1.735.813-3.673-1.07-4.081-3.102-.714-5.646 1.581-6.41 4.03-.61 1.888-.254 3.265.865 4.744.102.102.153.204.255.306a139.678 139.678 0 0 1-2.493 4.592c-2.238 3.928-3.968 7.04-5.24 7.04-1.018 0-1.018-3.163-1.018-6.071 0-2.55.204-6.377.356-10.305.051-1.326-.61-2.04-1.678-2.704-.662-.408-2.086-1.224-2.9-1.224-1.221 0-4.782.153-8.14 9.897-.407 1.224-1.272 3.469-1.272 3.469l.05-11.682a.824.824 0 0 0-.457-.715c-.56-.306-2.086-.918-3.409-.918-.661 0-.966.306-.966.867l-.102 18.264c0 1.377.05 3.01.152 3.724.153.714.357 1.275.611 1.632s.61.612 1.12.714c.508.102 3.153.46 3.306-.561.153-1.224.153-2.55 1.577-7.448 2.188-7.652 4.986-11.427 6.36-12.754.254-.255.508-.255.508.153-.05 1.684-.254 5.867-.407 9.438-.356 9.54 1.374 11.325 3.867 11.325 1.882 0 4.579-1.887 7.428-6.683 1.78-2.959 3.51-5.917 4.782-8.009.865.816 1.831 1.683 2.798 2.602 2.239 2.142 3.002 4.183 2.493 6.121-.356 1.48-1.78 3.01-4.325 1.531-.712-.408-1.068-.765-1.78-1.275-.407-.256-1.018-.358-1.374-.051-.966.714-1.475 1.632-1.78 2.754-.306 1.072.814 1.684 1.933 2.194.967.46 3.052.816 4.426.867 5.19.153 9.412-2.5 12.312-9.488.508 6.02 2.747 9.437 6.563 9.437 2.594 0 5.138-3.316 6.257-6.632.305 1.327.814 2.5 1.425 3.47 2.95 4.693 8.7 3.672 11.6-.307.915-1.224 1.017-1.683 1.017-1.683.407 3.775 3.46 5.101 5.189 5.101 1.933 0 3.968-.918 5.342-4.081.152.357.356.663.559.97 2.951 4.693 8.7 3.672 11.6-.307.153-.204.254-.357.356-.51l.102 2.5s-1.628 1.53-2.646 2.449c-4.477 4.08-7.834 7.193-8.089 10.815-.305 4.59 3.409 6.325 6.258 6.53 3.001.255 5.545-1.429 7.122-3.725 1.374-2.04 2.29-6.428 2.239-10.815-.051-1.734-.051-3.979-.102-6.326a50.692 50.692 0 0 0 4.935-6.835c1.781-2.96 3.663-6.887 4.63-9.948 0 0 1.628 0 3.408-.102.56-.051.712.102.611.51-.102.51-2.239 8.621-.306 14.029 1.323 3.673 4.274 4.897 6.004 4.897 2.035 0 4.019-1.53 5.036-3.877.102.255.255.51.407.714 2.951 4.694 8.7 3.673 11.6-.306.661-.918 1.017-1.683 1.017-1.683.611 3.928 3.663 5.101 5.393 5.101 1.832 0 3.51-.765 4.935-4.03.051 1.48.153 2.653.305 3.01.102.204.611.51.967.663 1.679.612 3.358.306 3.968.204.458-.102.763-.459.814-1.326.102-2.347.051-6.326.763-9.285 1.221-4.948 2.29-6.887 2.849-7.805.305-.51.611-.612.662-.051 0 1.122.101 4.49.559 8.979.356 3.315.814 5.254 1.17 5.866 1.018 1.786 2.239 1.837 3.256 1.837.662 0 1.984-.153 1.832-1.327-.051-.56.051-3.928 1.221-8.825.763-3.163 2.035-6.071 2.544-7.091.152-.408.254-.102.254 0-.102 2.193-.305 9.335.56 13.263 1.221 5.306 4.68 5.918 5.901 5.918 2.595 0 4.731-1.99 5.444-7.193.152-1.326-.102-2.296-.865-2.296z"/></g><defs><filter id="a" width="208" height="65" x="0" y="0" color-interpolation-filters="sRGB" filterUnits="userSpaceOnUse"><feFlood flood-opacity="0" result="BackgroundImageFix"/><feColorMatrix in="SourceAlpha" result="hardAlpha" values="0 0 0 0 0 0 0 0 0 0 0 0 0 0 0 0 0 0 127 0"/><feOffset dy="4"/><feGaussianBlur stdDeviation="2"/><feComposite in2="hardAlpha" operator="out"/><feColorMatrix values="0 0 0 0 0 0 0 0 0 0 0 0 0 0 0 0 0 0 0.25 0"/><feBlend in2="BackgroundImageFix" result="effect1_dropShadow_19300_449"/><feColorMatrix in="SourceAlpha" result="hardAlpha" values="0 0 0 0 0 0 0 0 0 0 0 0 0 0 0 0 0 0 127 0"/><feOffset dy="4"/><feGaussianBlur stdDeviation="2"/><feComposite in2="hardAlpha" operator="out"/><feColorMatrix values="0 0 0 0 0 0 0 0 0 0 0 0 0 0 0 0 0 0 0.25 0"/><feBlend in2="effect1_dropShadow_19300_449" result="effect2_dropShadow_19300_449"/><feBlend in="SourceGraphic" in2="effect2_dropShadow_19300_449" result="shape"/></filter></defs></svg>