<svg xmlns="http://www.w3.org/2000/svg" fill="none" viewBox="0 0 200 48"><path fill="#000" d="M78.744 17.137h6.33v19.967h-6.33V17.137zM86.395 17.137h6.097v2.73h.117c1.475-2.146 3.378-3.315 6.136-3.315 4.349 0 6.912 3.12 6.912 7.565v12.987h-6.33v-11.7c0-2.106-1.049-3.549-3.107-3.549-2.097 0-3.495 1.755-3.495 4.212v11.037h-6.33V17.137zM85.705 11.794c0-2.106-1.7-3.813-3.797-3.813a3.805 3.805 0 0 0-3.797 3.813c0 2.106 1.7 3.813 3.797 3.813a3.805 3.805 0 0 0 3.797-3.813zM150.177 16.848a7.1 7.1 0 0 0-.63-.023c-2.408 0-4.039 1.052-5.437 3.431h-.117v-3.12h-6.058v19.967h6.33v-8.97c0-4.155 2.292-6.08 5.912-5.745v-5.54zM181.24 24.507c-2.524-.468-4.776-.663-4.776-2.067 0-1.248 1.204-1.832 2.757-1.832 1.747 0 2.951.545 3.184 2.34h5.825c-.31-3.94-3.339-6.396-8.97-6.396-4.699 0-8.583 2.184-8.583 6.396 0 4.679 3.69 5.615 7.146 6.2 2.641.468 5.048.663 5.048 2.457 0 1.287-1.204 1.989-3.106 1.989-1.909 0-3.172-.811-3.559-2.457h-6.032c.444 4.105 4.032 6.59 9.629 6.59 5.204 0 9.049-2.261 9.049-6.629 0-5.109-4.117-6.006-7.612-6.59zM159.996 21.075c2.058 0 3.534 1.521 3.767 3.9h-7.844c.427-2.379 1.67-3.9 4.077-3.9zm.35 12.05c-2.602 0-4.078-1.676-4.466-4.367h14.291c.039-4.056-1.126-7.527-3.495-9.71-1.709-1.56-3.961-2.496-6.797-2.496-6.058 0-10.213 4.562-10.213 10.53 0 6.044 4.039 10.607 10.602 10.607 2.524 0 4.544-.663 6.213-1.833 1.748-1.21 2.913-2.925 3.34-4.719h-6.174c-.544 1.248-1.631 1.989-3.301 1.989zM200 32.395c-.293.012-.687.029-1.049.029-1.359 0-2.213-.39-2.213-1.95v-9.36H200v-3.977h-3.262v-6.318h-6.175v6.318h-1.943v3.977h1.943V31.84c0 4.29 2.641 5.498 6.33 5.498 1.408 0 2.472-.105 3.107-.23v-4.712zM116.961 32.404c-.252.01-.544.02-.816.02-1.359 0-2.214-.39-2.214-1.95v-9.36h3.03v-3.977h-3.03v-6.318h-6.174v6.318h-2.059v3.977h2.059V31.84c0 4.29 2.64 5.498 6.33 5.498 1.248 0 2.225-.083 2.874-.189v-4.744z"/><path fill="#000" d="M130.749 24.975c-.233-2.379-1.709-3.9-3.767-3.9-2.408 0-3.65 1.521-4.078 3.9h7.845zm-14.097 2.106c0-5.966 4.155-10.53 10.213-10.53 2.835 0 5.088.937 6.796 2.497 2.369 2.184 3.534 5.654 3.495 9.71h-14.29c.388 2.69 1.863 4.368 4.466 4.368 1.669 0 2.757-.741 3.3-1.989h6.175c-.427 1.794-1.592 3.51-3.34 4.719-1.67 1.17-3.689 1.833-6.213 1.833-6.563 0-10.602-4.563-10.602-10.608zM67.75 22.323c2.486 0 3.884-1.482 3.884-3.705 0-2.222-1.437-3.587-3.883-3.587h-4.855v7.292h4.855zM56.488 9.22H67.48c3.378 0 5.864.936 7.572 2.574 1.787 1.677 2.796 4.056 2.796 6.863 0 5.343-3.689 9.126-9.397 9.126h-5.555v9.32h-6.409V9.22z"/><path fill="#fff" d="M47.798 24c0 13.255-10.7 24-23.899 24C10.7 48 0 37.255 0 24S10.7 0 23.9 0c13.198 0 23.898 10.745 23.898 24z"/><path fill="#000" d="M23.899 0C10.7 0 0 10.745 0 24c0 10.167 6.3 18.86 15.19 22.356-.21-1.899-.398-4.819.082-6.892.435-1.873 2.803-11.93 2.803-11.93s-.715-1.437-.715-3.563c0-3.337 1.926-5.828 4.324-5.828 2.04 0 3.024 1.537 3.024 3.38 0 2.06-1.305 5.138-1.979 7.991-.563 2.389 1.193 4.337 3.539 4.337 4.248 0 7.513-4.498 7.513-10.99 0-5.747-4.112-9.764-9.983-9.764-6.8 0-10.791 5.122-10.791 10.415 0 2.063.79 4.275 1.778 5.477.195.238.224.446.166.689-.181.758-.585 2.388-.664 2.721-.104.44-.346.533-.8.321-2.984-1.395-4.85-5.777-4.85-9.297 0-7.571 5.477-14.524 15.79-14.524 8.291 0 14.734 5.933 14.734 13.861 0 8.272-5.193 14.928-12.401 14.928-2.422 0-4.699-1.263-5.478-2.756 0 0-1.198 4.583-1.489 5.706-.54 2.084-1.996 4.697-2.97 6.291A23.793 23.793 0 0 0 23.899 48c13.2 0 23.899-10.744 23.899-24 0-13.254-10.7-24-23.9-24z"/></svg>