<svg xmlns="http://www.w3.org/2000/svg" fill="none" viewBox="0 0 200 140"><mask id="a" width="200" height="140" x="0" y="0" maskUnits="userSpaceOnUse" style="mask-type:alpha"><path fill="#FFFFFE" d="M0 0h200v140H0V0z"/></mask><g fill-rule="evenodd" clip-rule="evenodd" mask="url(#a)"><path fill="#FFFFFE" d="M83.044 15.326C89.5 8.591 98.485 4.421 108.412 4.421c13.235 0 24.706 7.368 30.882 18.347a42.574 42.574 0 0 1 17.427-3.72c23.823 0 43.161 19.526 43.161 43.62 0 24.095-19.338 43.621-43.161 43.621-2.912 0-5.75-.293-8.53-.847-5.404 9.653-15.735 16.21-27.5 16.21a31.33 31.33 0 0 1-13.823-3.183c-5.478 12.895-18.236 21.958-33.088 21.958-15.515 0-28.677-9.8-33.75-23.579-2.259.478-4.56.718-6.868.716-18.456 0-33.382-15.179-33.382-33.82a34.003 34.003 0 0 1 16.69-29.327 38.83 38.83 0 0 1-3.198-15.474C13.272 17.428 30.7.038 52.17.038a38.698 38.698 0 0 1 30.883 15.326"/><path fill="#000" d="M28.927 72.8c-.126.328.044.397.085.455.376.273.757.47 1.14.692 2.044 1.083 3.97 1.4 5.985 1.4 4.103 0 6.654-2.188 6.654-5.71v-.07c0-3.257-2.882-4.443-5.573-5.29l-.353-.115c-2.036-.661-3.794-1.238-3.794-2.579v-.068c0-1.15 1.03-1.997 2.618-1.997 1.765 0 3.868.589 5.213 1.334 0 0 .399.258.544-.128.078-.208.764-2.048.838-2.254.078-.216-.059-.38-.2-.463-1.544-.943-3.676-1.584-5.882-1.584l-.41.001c-3.757 0-6.382 2.277-6.382 5.534v.07c0 3.434 2.897 4.554 5.603 5.327l.436.136c1.97.607 3.676 1.135 3.676 2.52v.069c0 1.275-1.11 2.225-2.89 2.225a9.674 9.674 0 0 1-5.286-1.525c-.29-.169-.454-.29-.677-.427-.117-.071-.412-.2-.54.186l-.808 2.255.003.006zm60.07-.006c-.126.328.045.397.087.455.374.273.757.47 1.14.692 2.044 1.083 3.97 1.4 5.985 1.4 4.103 0 6.654-2.188 6.654-5.71v-.07c0-3.257-2.875-4.443-5.573-5.29l-.352-.115c-2.037-.661-3.794-1.237-3.794-2.578v-.069c0-1.15 1.029-1.997 2.617-1.997 1.765 0 3.86.589 5.213 1.334 0 0 .399.258.544-.128.078-.208.765-2.048.831-2.254.079-.216-.058-.379-.198-.463-1.544-.943-3.677-1.584-5.882-1.584l-.41.001c-3.758 0-6.383 2.277-6.383 5.534v.07c0 3.434 2.897 4.554 5.603 5.327l.434.136c1.978.607 3.677 1.135 3.677 2.52v.07c0 1.274-1.11 2.224-2.89 2.224a9.658 9.658 0 0 1-5.287-1.525c-.289-.169-.458-.285-.677-.427-.074-.047-.42-.182-.539.186l-.809 2.255.01.006zm41.021-6.903c0 1.99-.371 3.559-1.096 4.672-.723 1.097-1.816 1.635-3.338 1.635s-2.61-.533-3.324-1.628c-.718-1.105-1.08-2.682-1.08-4.672 0-1.989.364-3.551 1.08-4.649.712-1.09 1.795-1.614 3.324-1.614s2.618.529 3.338 1.614c.73 1.098 1.096 2.66 1.096 4.65v-.008zm3.426-3.684c-.337-1.142-.86-2.144-1.559-2.984a7.457 7.457 0 0 0-2.632-2.005c-1.044-.49-2.279-.736-3.676-.736-1.397 0-2.625.248-3.677.736a7.556 7.556 0 0 0-2.632 2.005c-.697.84-1.221 1.842-1.559 2.984-.335 1.135-.504 2.372-.504 3.691 0 1.32.169 2.557.504 3.692.336 1.142.86 2.144 1.559 2.984a7.407 7.407 0 0 0 2.632 1.99c1.052.477 2.287.72 3.677.72 1.389 0 2.625-.243 3.669-.72a7.38 7.38 0 0 0 2.632-1.99c.698-.84 1.221-1.842 1.559-2.984.334-1.135.504-2.373.504-3.692 0-1.311-.17-2.556-.504-3.691h.007zm28.155 9.431c-.113-.333-.438-.207-.438-.207-.498.19-1.029.367-1.595.456-.571.09-1.206.135-1.875.135-1.655 0-2.978-.495-3.92-1.474-.948-.98-1.478-2.557-1.47-4.694.005-1.945.474-3.404 1.316-4.524.831-1.105 2.11-1.68 3.802-1.68 1.411 0 2.492.164 3.625.52 0 0 .268.117.397-.238.3-.832.522-1.43.845-2.343.091-.261-.132-.372-.214-.404-.444-.174-1.492-.459-2.287-.579a17.206 17.206 0 0 0-2.573-.172c-1.441 0-2.721.247-3.816.736-1.096.488-2.022 1.164-2.758 2.004-.735.84-1.294 1.842-1.669 2.984-.371 1.135-.559 2.38-.559 3.7 0 2.843.765 5.15 2.28 6.837 1.515 1.695 3.794 2.55 6.765 2.55 1.757 0 3.558-.356 4.852-.87 0 0 .248-.12.14-.408l-.845-2.329h-.003zm5.995-7.663c.164-1.105.466-2.026.941-2.74.711-1.091 1.795-1.688 3.317-1.688 1.522 0 2.529.6 3.25 1.687.478.719.686 1.673.764 2.741l-8.309-.001.037.001zm11.544-2.431c-.292-1.098-1.014-2.21-1.485-2.72-.75-.802-1.478-1.37-2.206-1.68a8.438 8.438 0 0 0-3.323-.675c-1.449 0-2.765.245-3.831.744-1.066.503-1.963 1.187-2.669 2.041a8.4 8.4 0 0 0-1.574 3.021c-.338 1.142-.509 2.395-.509 3.707 0 1.34.177 2.586.526 3.713a7.624 7.624 0 0 0 1.684 2.955c.765.833 1.742 1.481 2.919 1.938 1.169.453 2.588.688 4.213.683 3.353-.011 5.118-.759 5.838-1.164.129-.072.25-.197.099-.556l-.757-2.13c-.117-.317-.437-.202-.437-.202-.831.311-2.008.87-4.765.862-1.801-.003-3.132-.535-3.97-1.37-.853-.855-1.28-2.1-1.346-3.869l11.618.01s.305-.004.337-.303c.013-.124.398-2.387-.346-5.003l-.016-.002zM74.727 63.975c.164-1.105.466-2.026.94-2.74.712-1.091 1.795-1.688 3.317-1.688 1.522 0 2.53.6 3.25 1.687.477.719.686 1.673.765 2.741l-8.31-.001.038.001zm11.544-2.431c-.291-1.098-1.015-2.21-1.486-2.72-.75-.802-1.477-1.37-2.206-1.68a8.44 8.44 0 0 0-3.323-.675c-1.448 0-2.765.245-3.83.744-1.067.503-1.964 1.187-2.67 2.041a8.424 8.424 0 0 0-1.573 3.021c-.338 1.142-.508 2.395-.508 3.707 0 1.34.176 2.586.527 3.713a7.7 7.7 0 0 0 1.676 2.955c.765.833 1.743 1.481 2.92 1.938 1.168.453 2.58.688 4.212.683 3.353-.011 5.118-.759 5.839-1.164.128-.072.25-.197.097-.556l-.757-2.13c-.117-.317-.437-.202-.437-.202-.831.311-2.008.87-4.765.862-1.794-.003-3.132-.535-3.97-1.37-.854-.855-1.28-2.1-1.346-3.869l11.617.01s.306-.004.338-.303c.012-.124.398-2.387-.347-5.003l-.008-.002zm-36.618 10.02c-.455-.363-.518-.452-.67-.689-.23-.356-.347-.862-.347-1.51 0-1.017.338-1.754 1.037-2.248-.008.002 1-.87 3.368-.84 1.053.02 2.105.109 3.147.27v5.282h.001s-1.47.318-3.132.418c-2.36.142-3.405-.68-3.397-.679l-.007-.003zm4.618-8.178a25.75 25.75 0 0 0-1.81-.052c-.992 0-1.955.124-2.852.367a7.428 7.428 0 0 0-2.42 1.128 5.62 5.62 0 0 0-1.683 1.915c-.411.767-.62 1.666-.62 2.682 0 1.032.178 1.924.531 2.653.346.724.866 1.35 1.515 1.82.645.47 1.44.818 2.36 1.024.912.209 1.941.314 3.074.314 1.19 0 2.375-.1 3.522-.294.977-.169 1.95-.358 2.919-.569.386-.089.816-.206.816-.206.287-.073.265-.38.265-.38l-.007-10.61c0-2.33-.62-4.06-1.846-5.13-1.22-1.068-3.007-1.605-5.323-1.605-.868 0-2.272.117-3.11.286 0 0-2.53.492-3.574 1.312 0 0-.23.141-.104.462l.823 2.21c.102.287.381.189.381.189s.088-.035.19-.096c2.228-1.216 5.052-1.179 5.052-1.179 1.25 0 2.22.254 2.868.752.633.487.956 1.223.956 2.77v.492c-.993-.145-1.912-.228-1.912-.228l-.011-.027zm93.382-5.99a.307.307 0 0 0 .002-.247.33.33 0 0 0-.176-.172c-.198-.075-1.184-.284-1.941-.331-1.456-.092-2.265.155-2.993.482-.719.325-1.515.847-1.956 1.451l-.001-1.414c0-.195-.138-.352-.333-.352h-2.971c-.193 0-.332.157-.332.352V74.48a.353.353 0 0 0 .352.353h3.044a.353.353 0 0 0 .351-.353v-8.694c0-1.165.128-2.321.383-3.05.252-.722.594-1.298 1.015-1.71a3.523 3.523 0 0 1 1.434-.862 5.638 5.638 0 0 1 1.559-.22c.606 0 1.272.156 1.272.156.223.025.348-.112.423-.314.2-.53.765-2.122.875-2.439"/><path fill="#000" d="M119.221 49.404a9.728 9.728 0 0 0-1.146-.273 8.958 8.958 0 0 0-1.576-.122c-2.098 0-3.752.594-4.913 1.767-1.153 1.164-1.937 2.938-2.331 5.271l-.142.788h-2.633s-.321-.013-.389.338l-.432 2.417c-.03.231.069.376.378.374h2.563l-2.601 14.548c-.203 1.171-.436 2.135-.694 2.865-.255.721-.503 1.261-.809 1.653-.297.38-.578.659-1.062.822-.4.135-.86.197-1.365.197-.281 0-.654-.048-.93-.103-.276-.054-.419-.116-.626-.203 0 0-.3-.115-.419.187-.096.247-.78 2.13-.86 2.362-.082.23.033.411.179.464.34.122.594.2 1.059.31.646.152 1.19.162 1.699.162 1.068 0 2.041-.15 2.847-.442.812-.294 1.519-.806 2.144-1.5.676-.748 1.101-1.53 1.507-2.6.402-1.058.745-2.373 1.019-3.904l2.614-14.818h3.82s.322.012.389-.338l.432-2.417c.031-.231-.068-.375-.378-.374h-3.708c.018-.084.186-1.391.612-2.622.182-.525.524-.949.813-1.24a2.41 2.41 0 0 1 .972-.605 4.021 4.021 0 0 1 1.245-.18c.349 0 .692.042.953.096.359.077.499.117.593.145.378.116.429.004.503-.18l.887-2.44c.091-.262-.131-.373-.214-.405zM67.402 74.543c0 .194-.138.353-.332.353h-3.076c-.195 0-.333-.159-.333-.353V49.735c0-.194.138-.35.333-.35h3.076c.194 0 .332.156.332.35v24.808z"/></g></svg>