<svg xmlns="http://www.w3.org/2000/svg" fill="none" viewBox="0 0 200 140"><mask id="a" width="200" height="140" x="0" y="0" maskUnits="userSpaceOnUse" style="mask-type:alpha"><path fill="#fff" d="M0 0h200v140H0V0z"/></mask><g fill-rule="evenodd" clip-rule="evenodd" mask="url(#a)"><path fill="#000" d="M83.044 15.326C89.5 8.592 98.485 4.421 108.412 4.421c13.235 0 24.706 7.369 30.882 18.347a42.573 42.573 0 0 1 17.427-3.72c23.823 0 43.161 19.526 43.161 43.62 0 24.095-19.338 43.621-43.161 43.621-2.912 0-5.75-.293-8.53-.847-5.404 9.653-15.735 16.211-27.5 16.211a31.344 31.344 0 0 1-13.823-3.184c-5.478 12.895-18.236 21.958-33.088 21.958-15.515 0-28.677-9.8-33.75-23.579-2.259.478-4.56.718-6.868.717-18.456 0-33.382-15.179-33.382-33.821a34.003 34.003 0 0 1 16.69-29.327 38.83 38.83 0 0 1-3.198-15.473C13.272 17.428 30.7.038 52.17.038a38.698 38.698 0 0 1 30.883 15.327"/><path fill="#FFFFFE" d="M28.927 72.8c-.126.329.044.397.085.455.376.273.757.47 1.14.692 2.044 1.084 3.97 1.4 5.985 1.4 4.103 0 6.654-2.188 6.654-5.71v-.07c0-3.256-2.882-4.443-5.573-5.29l-.353-.114c-2.036-.662-3.794-1.238-3.794-2.58v-.068c0-1.15 1.03-1.996 2.618-1.996 1.765 0 3.868.588 5.213 1.333 0 0 .399.258.544-.127.078-.209.764-2.049.838-2.255.078-.216-.059-.379-.2-.463-1.544-.943-3.676-1.584-5.882-1.584l-.41.002c-3.757 0-6.382 2.276-6.382 5.533v.07c0 3.434 2.897 4.554 5.603 5.328l.436.135c1.97.607 3.676 1.135 3.676 2.52v.07c0 1.274-1.11 2.225-2.89 2.225a9.675 9.675 0 0 1-5.286-1.526c-.29-.168-.454-.29-.677-.426-.117-.072-.412-.2-.54.185l-.808 2.255.003.006zm60.07-.006c-.126.329.045.397.087.456.374.272.757.47 1.14.691 2.044 1.084 3.97 1.4 5.985 1.4 4.103 0 6.654-2.188 6.654-5.71v-.07c0-3.256-2.875-4.443-5.573-5.29l-.352-.114c-2.037-.662-3.794-1.238-3.794-2.579v-.069c0-1.149 1.029-1.996 2.617-1.996 1.765 0 3.86.588 5.213 1.333 0 0 .399.258.544-.127.078-.209.765-2.049.831-2.255.079-.216-.058-.379-.198-.463-1.544-.943-3.677-1.584-5.882-1.584l-.41.002c-3.758 0-6.383 2.276-6.383 5.533v.07c0 3.434 2.897 4.554 5.603 5.328l.434.135c1.978.607 3.677 1.135 3.677 2.52v.07c0 1.274-1.11 2.225-2.89 2.225a9.657 9.657 0 0 1-5.287-1.525c-.289-.17-.458-.286-.677-.427-.074-.047-.42-.183-.539.186l-.809 2.254.01.006zm41.021-6.903c0 1.99-.371 3.56-1.096 4.672-.723 1.098-1.816 1.636-3.338 1.636s-2.61-.534-3.324-1.629c-.718-1.105-1.08-2.682-1.08-4.671 0-1.99.364-3.552 1.08-4.65.712-1.09 1.795-1.613 3.324-1.613s2.618.528 3.338 1.613c.73 1.098 1.096 2.66 1.096 4.65v-.008zm3.426-3.684c-.337-1.142-.86-2.144-1.559-2.984a7.457 7.457 0 0 0-2.632-2.004c-1.044-.49-2.279-.737-3.676-.737-1.397 0-2.625.248-3.677.737a7.556 7.556 0 0 0-2.632 2.004c-.697.84-1.221 1.842-1.559 2.984-.335 1.135-.504 2.373-.504 3.692s.169 2.557.504 3.691c.336 1.142.86 2.145 1.559 2.985a7.407 7.407 0 0 0 2.632 1.99c1.052.477 2.287.72 3.677.72 1.389 0 2.625-.243 3.669-.72a7.38 7.38 0 0 0 2.632-1.99c.698-.84 1.221-1.843 1.559-2.985.334-1.134.504-2.372.504-3.691 0-1.312-.17-2.557-.504-3.692h.007zm28.155 9.432c-.113-.334-.438-.208-.438-.208-.498.19-1.029.368-1.595.456-.571.09-1.206.135-1.875.135-1.655 0-2.978-.495-3.92-1.474-.948-.98-1.478-2.557-1.47-4.693.005-1.946.474-3.405 1.316-4.525.831-1.105 2.11-1.68 3.802-1.68 1.411 0 2.492.165 3.625.52 0 0 .268.117.397-.237.3-.833.522-1.43.845-2.344.091-.261-.132-.372-.214-.403-.444-.174-1.492-.46-2.287-.58a17.206 17.206 0 0 0-2.573-.172c-1.441 0-2.721.247-3.816.736-1.096.489-2.022 1.164-2.758 2.004-.735.84-1.294 1.843-1.669 2.985-.371 1.134-.559 2.38-.559 3.699 0 2.844.765 5.15 2.28 6.837 1.515 1.695 3.794 2.55 6.765 2.55 1.757 0 3.558-.356 4.852-.87 0 0 .248-.119.14-.408l-.845-2.328h-.003zm5.995-7.663c.164-1.106.466-2.027.941-2.741.711-1.09 1.795-1.688 3.317-1.688 1.522 0 2.529.6 3.25 1.688.478.718.686 1.672.764 2.74h-8.309.037zm11.544-2.432c-.292-1.098-1.014-2.21-1.485-2.719-.75-.803-1.478-1.37-2.206-1.68a8.438 8.438 0 0 0-3.323-.676c-1.449 0-2.765.246-3.831.745-1.066.502-1.963 1.186-2.669 2.04a8.4 8.4 0 0 0-1.574 3.022c-.338 1.142-.509 2.395-.509 3.706 0 1.341.177 2.586.526 3.714a7.624 7.624 0 0 0 1.684 2.954c.765.833 1.742 1.481 2.919 1.938 1.169.454 2.588.689 4.213.683 3.353-.01 5.118-.758 5.838-1.164.129-.072.25-.197.099-.555l-.757-2.13c-.117-.317-.437-.203-.437-.203-.831.312-2.008.87-4.765.863-1.801-.003-3.132-.536-3.97-1.37-.853-.856-1.28-2.1-1.346-3.87l11.618.01s.305-.003.337-.303c.013-.123.398-2.387-.346-5.003l-.016-.002zM74.727 63.976c.164-1.106.466-2.027.94-2.741.712-1.09 1.795-1.688 3.317-1.688 1.522 0 2.53.6 3.25 1.688.477.718.686 1.672.765 2.74h-8.31.038zm11.544-2.432c-.291-1.098-1.015-2.21-1.486-2.719-.75-.803-1.477-1.37-2.206-1.68a8.44 8.44 0 0 0-3.323-.676c-1.448 0-2.765.246-3.83.745-1.067.502-1.964 1.186-2.67 2.04a8.423 8.423 0 0 0-1.573 3.022c-.338 1.142-.508 2.395-.508 3.706 0 1.341.176 2.586.527 3.714a7.7 7.7 0 0 0 1.676 2.954c.765.833 1.743 1.481 2.92 1.938 1.168.454 2.58.689 4.212.683 3.353-.01 5.118-.758 5.839-1.164.128-.072.25-.197.097-.555l-.757-2.13c-.117-.317-.437-.203-.437-.203-.831.312-2.008.87-4.765.863-1.794-.003-3.132-.536-3.97-1.37-.854-.856-1.28-2.1-1.346-3.87l11.617.01s.306-.003.338-.303c.012-.123.398-2.387-.347-5.003l-.008-.002zM49.653 71.565c-.455-.364-.518-.453-.67-.69-.23-.356-.347-.862-.347-1.51 0-1.017.338-1.754 1.037-2.247-.008.001 1-.87 3.368-.84 1.053.018 2.105.108 3.147.268v5.284h.001s-1.47.317-3.132.417c-2.36.143-3.405-.68-3.397-.678l-.007-.004zm4.618-8.179c-.47-.035-1.081-.051-1.81-.051-.992 0-1.955.123-2.852.367a7.43 7.43 0 0 0-2.42 1.127 5.62 5.62 0 0 0-1.683 1.916c-.411.766-.62 1.665-.62 2.682 0 1.031.178 1.923.531 2.652.346.724.866 1.35 1.515 1.82.645.47 1.44.818 2.36 1.025.912.208 1.941.313 3.074.313 1.19 0 2.375-.1 3.522-.293.977-.17 1.95-.359 2.919-.57.386-.088.816-.206.816-.206.287-.073.265-.38.265-.38l-.007-10.61c0-2.329-.62-4.06-1.846-5.129-1.22-1.068-3.007-1.606-5.323-1.606-.868 0-2.272.118-3.11.287 0 0-2.53.492-3.574 1.311 0 0-.23.142-.104.462l.823 2.21c.102.287.381.19.381.19s.088-.035.19-.096c2.228-1.216 5.052-1.18 5.052-1.18 1.25 0 2.22.255 2.868.752.633.487.956 1.223.956 2.77v.492c-.993-.144-1.912-.228-1.912-.228l-.011-.027zm93.382-5.99a.307.307 0 0 0 .002-.247.314.314 0 0 0-.176-.172c-.198-.075-1.184-.284-1.941-.33-1.456-.092-2.265.154-2.993.481-.719.325-1.515.847-1.956 1.452l-.001-1.415c0-.194-.138-.352-.333-.352h-2.971c-.193 0-.332.157-.332.352v17.316a.353.353 0 0 0 .352.353h3.044a.353.353 0 0 0 .351-.353v-8.695c0-1.164.128-2.321.383-3.05.252-.722.594-1.297 1.015-1.71a3.52 3.52 0 0 1 1.434-.862 5.638 5.638 0 0 1 1.559-.22c.606 0 1.272.157 1.272.157.223.025.348-.112.423-.314.2-.532.765-2.122.875-2.44"/><path fill="#FFFFFE" d="M119.221 49.404a9.729 9.729 0 0 0-1.146-.273 8.967 8.967 0 0 0-1.576-.122c-2.098 0-3.752.594-4.913 1.767-1.153 1.164-1.937 2.937-2.331 5.271l-.142.788h-2.633s-.321-.014-.389.338l-.432 2.417c-.03.231.069.375.378.374h2.563l-2.601 14.548c-.203 1.171-.436 2.135-.694 2.865-.255.72-.503 1.26-.809 1.653-.297.38-.578.659-1.062.821-.4.135-.86.197-1.365.197-.281 0-.654-.047-.93-.102-.276-.055-.419-.117-.626-.204 0 0-.3-.115-.419.188-.096.246-.78 2.129-.86 2.362-.082.23.033.411.179.463.34.123.594.2 1.059.31.646.153 1.19.163 1.699.163 1.068 0 2.041-.15 2.847-.442.812-.294 1.519-.807 2.144-1.5.676-.748 1.101-1.531 1.507-2.6.402-1.058.745-2.373 1.019-3.905l2.614-14.817h3.82s.322.012.389-.338l.432-2.417c.031-.231-.068-.376-.378-.374h-3.708c.018-.084.186-1.392.612-2.622.182-.525.524-.949.813-1.24a2.41 2.41 0 0 1 .972-.606 4.024 4.024 0 0 1 1.245-.18c.349 0 .692.042.953.097.359.077.499.117.593.145.378.116.429.004.503-.18l.887-2.44c.091-.262-.131-.373-.214-.405zM67.402 74.543c0 .194-.138.352-.332.352h-3.076c-.195 0-.333-.158-.333-.352V49.734c0-.193.138-.35.333-.35h3.076c.194 0 .332.157.332.35v24.809z"/></g></svg>