<svg xmlns="http://www.w3.org/2000/svg" fill="none" viewBox="0 0 200 58"><path fill="#fff" d="M43 11.338c-.033-.293-.295-.424-.49-.424-.197 0-4.477-.326-4.477-.326S35.06 7.617 34.7 7.323c-.327-.326-.947-.229-1.209-.163-.032 0-.653.196-1.666.522-1.013-2.905-2.745-5.55-5.849-5.55h-.294C24.832 1.022 23.722.5 22.807.5c-7.189 0-10.652 8.978-11.73 13.548-2.81.882-4.804 1.47-5.032 1.567-1.569.49-1.601.522-1.797 1.992C4.084 18.716 0 50.284 0 50.284l31.792 5.942 17.252-3.722c.033-.065-6.012-40.873-6.044-41.167zM30.06 8.14c-.784.229-1.731.523-2.679.849V8.4c0-1.763-.229-3.199-.653-4.342 1.633.196 2.646 1.992 3.332 4.081zm-5.325-3.721c.424 1.11.718 2.676.718 4.831v.327c-1.764.555-3.627 1.11-5.554 1.73 1.078-4.114 3.136-6.138 4.835-6.888zm-2.092-2.025c.327 0 .654.131.915.327-2.32 1.077-4.77 3.787-5.783 9.271-1.536.49-3.006.915-4.411 1.372 1.176-4.18 4.117-10.97 9.28-10.97z"/><path fill="#8E8E8E" d="M42.51 10.849c-.197 0-4.477-.327-4.477-.327S35.06 7.552 34.7 7.258a.633.633 0 0 0-.424-.196L31.89 56.227l17.252-3.722s-6.044-40.873-6.077-41.167a.884.884 0 0 0-.555-.49z"/><path fill="#000" d="m25.976 20.381-2.09 6.301s-1.896-1.012-4.15-1.012c-3.366 0-3.53 2.122-3.53 2.644 0 2.873 7.516 3.983 7.516 10.74 0 5.322-3.366 8.75-7.908 8.75-5.489 0-8.233-3.395-8.233-3.395l1.47-4.832s2.875 2.481 5.293 2.481c1.601 0 2.255-1.24 2.255-2.154 0-3.755-6.143-3.918-6.143-10.12 0-5.191 3.725-10.219 11.273-10.219 2.81-.032 4.247.816 4.247.816z"/><path fill="#fff" d="M69.172 32.232c-1.732-.914-2.614-1.73-2.614-2.808 0-1.37 1.241-2.252 3.17-2.252 2.254 0 4.247.914 4.247.914l1.568-4.8s-1.438-1.11-5.685-1.11c-5.914 0-10.031 3.396-10.031 8.162 0 2.71 1.928 4.767 4.476 6.236 2.091 1.142 2.81 1.991 2.81 3.232 0 1.273-1.046 2.318-2.973 2.318-2.843 0-5.555-1.47-5.555-1.47l-1.666 4.8s2.483 1.664 6.665 1.664c6.078 0 10.489-3.003 10.489-8.39-.066-2.938-2.255-4.962-4.901-6.496zm24.244-10.12c-3.006 0-5.359 1.436-7.156 3.59l-.065-.032 2.614-13.58h-6.764l-6.6 34.604h6.764l2.254-11.818c.882-4.472 3.202-7.247 5.359-7.247 1.535 0 2.124 1.044 2.124 2.514 0 .914-.066 2.089-.294 3.003l-2.549 13.548h6.764l2.646-13.972c.294-1.47.49-3.232.49-4.44-.032-3.885-2.025-6.17-5.587-6.17zm20.879 0c-8.169 0-13.56 7.345-13.56 15.54 0 5.222 3.235 9.466 9.312 9.466 8.006 0 13.397-7.149 13.397-15.539.032-4.864-2.778-9.467-9.149-9.467zm-3.333 19.848c-2.32 0-3.267-1.958-3.267-4.44 0-3.884 1.993-10.185 5.685-10.185 2.385 0 3.202 2.09 3.202 4.08 0 4.147-2.058 10.545-5.62 10.545zm29.832-19.848c-4.575 0-7.156 4.048-7.156 4.048h-.065l.392-3.624h-6.012c-.294 2.448-.85 6.203-1.372 8.978l-4.673 24.778h6.764l1.895-10.022h.163s1.405.881 3.954.881c7.972 0 13.168-8.161 13.168-16.388-.033-4.57-2.092-8.651-7.058-8.651zm-6.47 19.914c-1.764 0-2.81-1.012-2.81-1.012l1.111-6.301c.784-4.244 3.006-7.019 5.359-7.019 2.091 0 2.712 1.926 2.712 3.722.033 4.374-2.581 10.61-6.372 10.61zm23.167-29.61c-2.157 0-3.889 1.73-3.889 3.917 0 1.992 1.275 3.396 3.202 3.396h.066c2.124 0 3.921-1.437 3.953-3.918.033-1.992-1.307-3.395-3.332-3.395zm-9.476 34.245h6.764l4.574-24.027h-6.796l-4.542 24.027zm28.59-24.06H171.9l.229-1.11c.392-2.317 1.764-4.342 4.051-4.342 1.209 0 2.157.36 2.157.36l1.307-5.322s-1.144-.587-3.692-.587c-2.386 0-4.804.685-6.633 2.252-2.32 1.959-3.398 4.8-3.921 7.672l-.196 1.11h-3.17l-1.013 5.125h3.17l-3.594 18.935h6.763l3.594-18.935h4.673l.98-5.158zm16.305.033s-4.248 10.675-6.111 16.519h-.065c-.131-1.894-1.666-16.519-1.666-16.519h-7.123l4.084 22.003c.065.49.033.784-.163 1.11-.785 1.535-2.124 3.004-3.693 4.081-1.274.914-2.712 1.534-3.855 1.926l1.895 5.746c1.372-.294 4.248-1.437 6.633-3.69 3.071-2.872 5.947-7.344 8.887-13.417L200 22.601h-7.09v.033z"/></svg>