<svg xmlns="http://www.w3.org/2000/svg" fill="none" viewBox="0 0 200 62"><path fill="#fff" d="M79.697 47.825V42.83a9.95 9.95 0 0 0 2.02 1.325c.808.408 1.617.714 2.526 1.02.909.306 1.717.51 2.626.612.91.102 1.717.204 2.424.204 2.525 0 4.445-.51 5.758-1.428 1.313-.917 1.919-2.345 1.919-4.18 0-1.02-.202-1.836-.606-2.55a6.238 6.238 0 0 0-1.717-1.938c-.707-.611-1.616-1.121-2.627-1.733-1.01-.51-2.12-1.122-3.232-1.734-1.212-.611-2.424-1.325-3.434-1.937a12.195 12.195 0 0 1-2.828-2.141c-.808-.816-1.415-1.632-1.92-2.652-.505-1.02-.707-2.141-.707-3.467 0-1.631.404-3.06 1.111-4.283.707-1.223 1.617-2.243 2.829-2.957 1.11-.816 2.424-1.326 3.94-1.734a17.42 17.42 0 0 1 4.544-.611c3.536 0 6.061.407 7.677 1.325v4.793c-2.12-1.428-4.747-2.244-8.08-2.244-.91 0-1.819.103-2.728.307-.909.203-1.717.51-2.424.917a4.69 4.69 0 0 0-1.717 1.734c-.404.714-.707 1.53-.707 2.55 0 .917.202 1.733.505 2.345.303.713.808 1.325 1.515 1.835.707.51 1.515 1.122 2.424 1.632.91.51 2.02 1.121 3.233 1.733 1.313.612 2.525 1.326 3.636 2.04 1.111.713 2.121 1.53 3.03 2.345.91.816 1.515 1.836 2.02 2.855.505 1.02.707 2.244.707 3.57 0 1.733-.303 3.263-1.01 4.486-.707 1.224-1.616 2.244-2.727 2.957-1.212.816-2.525 1.326-4.04 1.632-1.516.306-3.132.51-4.849.51-.606 0-1.212 0-2.121-.102-.808-.102-1.717-.204-2.525-.408-.808-.204-1.718-.408-2.424-.612-1.01-.408-1.617-.714-2.02-1.02zM125.858 49.253h-5.757l-11.112-12.339h-.101v12.34h-4.141V11.114h4.141v24.168h.101l10.607-11.83h5.353l-11.818 12.442 12.727 13.358zM149.798 23.454l-11.616 29.878c-2.122 5.303-5.051 7.954-8.788 7.954-1.01 0-1.919-.102-2.626-.306v-3.67a7.518 7.518 0 0 0 2.424.407c2.02 0 3.535-1.224 4.646-3.67l2.02-4.896-9.899-25.697h4.546l6.869 19.783c.101.204.303.918.505 1.937h.101c.101-.407.202-1.02.505-1.937l7.171-19.885h4.142v.102zM156.161 35.18v3.57c0 2.141.708 3.977 2.021 5.404 1.414 1.53 3.131 2.244 5.151 2.244 2.424 0 4.344-.918 5.758-2.855 1.414-1.938 2.121-4.59 2.121-7.954 0-2.855-.606-5.099-1.919-6.73-1.313-1.632-3.03-2.448-5.253-2.448-2.323 0-4.242.816-5.656 2.55-1.515 1.53-2.223 3.67-2.223 6.22zm.102 10.3-.102 15.602h-4.04V23.454h4.04v4.487h.102c2.02-3.467 4.949-5.099 8.787-5.099 3.233 0 5.859 1.122 7.677 3.467 1.818 2.345 2.727 5.405 2.727 9.28 0 4.283-1.01 7.75-3.131 10.3-2.02 2.548-4.848 3.874-8.485 3.874-3.232.102-5.858-1.326-7.575-4.283zM195.859 33.957c0-2.345-.606-4.283-1.717-5.608-1.112-1.326-2.627-1.938-4.647-1.938-1.919 0-3.535.714-4.848 2.04-1.314 1.427-2.122 3.16-2.526 5.506h13.738zM200 37.424h-17.879c.101 2.856.808 5.099 2.324 6.629 1.414 1.53 3.434 2.345 5.959 2.345 2.828 0 5.455-.918 7.879-2.855v3.875c-2.222 1.631-5.152 2.447-8.889 2.447-3.535 0-6.364-1.122-8.485-3.467-2.02-2.345-3.03-5.609-3.03-9.891 0-3.977 1.111-7.24 3.333-9.79 2.222-2.55 5.051-3.773 8.384-3.773s5.859 1.122 7.677 3.263c1.818 2.142 2.727 5.2 2.727 9.076v2.141zM30.606 49.763c-10.202 0-14.848-5.2-14.848-9.075 0-1.938 1.515-3.366 3.535-3.366 4.343 0 3.232 6.629 11.414 6.629 4.142 0 6.566-2.55 6.566-4.895 0-1.428-.808-3.06-3.536-3.671l-9.09-2.346c-7.273-1.835-8.586-6.016-8.586-9.789 0-7.852 7.171-10.707 13.939-10.707 6.263 0 13.737 3.467 13.737 8.26 0 2.04-1.717 3.16-3.636 3.16-3.737 0-3.131-5.302-10.606-5.302-3.737 0-5.657 1.734-5.657 4.181 0 2.448 2.93 3.263 5.455 3.875l6.667 1.53c7.373 1.631 9.292 6.016 9.292 10.197 0 6.322-4.949 11.32-14.646 11.32zM58.788 36.1c.303-1.632.404-3.365.404-5.099 0-16.112-12.828-29.164-28.687-29.164-1.717 0-3.333.101-4.95.407C23.03.816 20.203 0 17.072 0 7.677 0 0 7.75 0 17.335c0 3.162.808 6.017 2.222 8.566-.303 1.632-.404 3.365-.404 5.099 0 16.112 12.829 29.164 28.687 29.164 1.717 0 3.333-.102 4.95-.407C37.98 61.184 40.808 62 43.939 62c9.394 0 17.071-7.75 17.071-17.336 0-3.059-.808-6.016-2.222-8.565z"/></svg>