<svg xmlns="http://www.w3.org/2000/svg" fill="none" viewBox="0 0 200 114"><path fill="#fff" d="M2.265 51.944c-.417 0-.749.322-.802.783L0 63.835l1.463 10.917c.053.46.385.78.802.78.404 0 .733-.318.798-.776l1.733-10.921-1.733-11.11c-.063-.459-.396-.781-.798-.781zm8.225-6.07c-.069-.477-.41-.806-.832-.806-.424 0-.775.34-.833.806L6.86 63.834l1.966 17.563c.056.471.407.811.833.811.419 0 .761-.33.83-.806l2.236-17.567-2.234-17.96zM41.47 29.308c-.806 0-1.473.66-1.512 1.499L38.393 63.85l1.566 21.354c.041.835.706 1.493 1.512 1.493.803 0 1.467-.66 1.515-1.497v.006l1.77-21.356-1.77-33.043c-.048-.84-.713-1.5-1.515-1.5zM25.436 40.792c-.62 0-1.125.495-1.174 1.155l-1.764 21.894 1.764 21.182c.047.656.555 1.15 1.174 1.15.613 0 1.119-.494 1.173-1.15l2.004-21.182-2.004-21.898c-.054-.656-.56-1.15-1.173-1.15zm32.33 45.903c1 0 1.814-.807 1.854-1.84l1.536-20.994-1.533-43.993c-.041-1.032-.854-1.839-1.854-1.839-1.01 0-1.824.809-1.857 1.841l-1.361 43.988 1.361 21.004c.032 1.024.848 1.833 1.854 1.833zm33.36.099c1.377 0 2.513-1.134 2.539-2.528l1.07-20.393-1.07-50.808c-.024-1.391-1.162-2.526-2.539-2.526-1.378 0-2.516 1.133-2.538 2.529l-.957 50.788c0 .033.957 20.423.957 20.423.022 1.381 1.162 2.515 2.538 2.515zm-16.807-.08c1.199 0 2.164-.961 2.197-2.187v.015l1.303-20.677-1.306-44.31c-.032-1.227-.998-2.186-2.196-2.186-1.206 0-2.172.96-2.198 2.185l-1.16 44.313 1.162 20.673a2.2 2.2 0 0 0 2.198 2.174zm-40.896-.194c.712 0 1.288-.57 1.342-1.32l1.888-21.359-1.888-20.317c-.052-.75-.628-1.317-1.342-1.317-.723 0-1.3.57-1.345 1.325l-1.662 20.31 1.662 21.356c.048.752.622 1.323 1.345 1.323zm-15.908-1.17c.52 0 .942-.41 1.002-.978l2.12-20.535-2.118-21.31c-.063-.569-.484-.98-1.004-.98-.527 0-.949.413-1.003.98l-1.867 21.31 1.867 20.53c.052.57.473.983 1.003.983zM82.69 18.817c-1.301 0-2.345 1.034-2.37 2.359l-1.059 42.693 1.058 20.544a2.368 2.368 0 0 0 2.37 2.342c1.3 0 2.337-1.032 2.367-2.357v.017l1.187-20.544-1.187-42.7c-.03-1.32-1.067-2.354-2.366-2.354zm-33.102 67.92c.899 0 1.64-.733 1.684-1.668l1.652-21.213-1.652-40.6c-.045-.938-.785-1.67-1.684-1.67-.908 0-1.648.734-1.687 1.67l-1.462 40.6 1.465 21.221c.036.927.776 1.66 1.684 1.66zm18.446-2.002v-.01l1.42-20.862-1.42-45.474c-.035-1.13-.925-2.016-2.025-2.016-1.105 0-1.996.884-2.026 2.015l-1.26 45.473 1.263 20.872c.03 1.118.92 2.002 2.024 2.002 1.1 0 1.987-.884 2.024-2.008v.008zM175.402 37.65c-3.37 0-6.586.682-9.515 1.91C163.929 17.39 145.337 0 122.658 0a43.979 43.979 0 0 0-15.735 2.94c-1.857.718-2.351 1.458-2.369 2.893v78.07a2.977 2.977 0 0 0 2.657 2.908c.062.006 67.75.04 68.189.04 13.585 0 24.6-11.013 24.6-24.6 0-13.585-11.013-24.6-24.598-24.6zM99.526 5.764c-1.478 0-2.691 1.213-2.713 2.703l-1.11 55.413 1.113 20.111a2.727 2.727 0 0 0 2.71 2.68c1.473 0 2.686-1.21 2.707-2.701v.023l1.207-20.113-1.207-55.417c-.021-1.486-1.234-2.7-2.707-2.7zm-79.66 96.725c-2.91-.684-3.698-1.049-3.698-2.202 0-.813.656-1.654 2.622-1.654 1.68 0 2.992.682 4.17 1.888l2.649-2.567c-1.732-1.81-3.829-2.885-6.685-2.885-3.622 0-6.558 2.046-6.558 5.377 0 3.617 2.362 4.693 5.743 5.478 3.46.785 4.09 1.312 4.09 2.493 0 1.389-1.025 1.993-3.198 1.993-1.757 0-3.409-.602-4.695-2.101l-2.648 2.362c1.39 2.045 4.067 3.329 7.132 3.329 5.012 0 7.214-2.359 7.214-5.846 0-3.987-3.226-4.983-6.138-5.665zm16.892-7.42c-5.007 0-7.969 3.88-7.969 9.466 0 5.585 2.962 9.463 7.97 9.463 5.007 0 7.973-3.878 7.973-9.463 0-5.586-2.966-9.466-7.974-9.466zm0 15.288c-2.961 0-4.196-2.545-4.196-5.82 0-3.278 1.235-5.822 4.197-5.822 2.966 0 4.196 2.544 4.196 5.822 0 3.275-1.23 5.82-4.197 5.82zm22.791-4.693c0 2.935-1.445 4.746-3.776 4.746-2.334 0-3.75-1.862-3.75-4.798V95.356H48.35v10.308c0 5.347 2.992 8.336 7.422 8.336 4.668 0 7.449-3.069 7.449-8.388V95.356h-3.672v10.308zm19.509-2.544c0 1.023.051 3.329.051 4.011-.236-.474-.838-1.39-1.284-2.074l-6.506-9.704h-3.513v18.359h3.62v-8.078c0-1.024-.051-3.33-.051-4.011.234.471.84 1.389 1.284 2.073l6.74 10.016h3.278V95.353h-3.62v7.767zm14.082-7.764h-5.743v18.358h5.478c4.721 0 9.391-2.729 9.391-9.179 0-6.715-3.882-9.18-9.126-9.18zm-.265 14.792h-1.806V98.924h1.94c3.882 0 5.482 1.86 5.482 5.611 0 3.357-1.76 5.613-5.616 5.613zm20.745-11.435c1.652 0 2.702.735 3.358 1.993l3.409-1.572c-1.155-2.385-3.254-4.065-6.715-4.065-4.795 0-8.154 3.88-8.154 9.466 0 5.794 3.224 9.463 8.022 9.463 3.332 0 5.535-1.546 6.793-4.143l-3.093-1.836c-.97 1.628-1.942 2.336-3.594 2.336-2.753 0-4.354-2.519-4.354-5.82-.001-3.407 1.577-5.822 4.328-5.822zm13.617-3.357h-3.671v18.358H134.6v-3.622h-7.363V95.356zm17.035-.287c-5.011 0-7.973 3.88-7.973 9.466 0 5.585 2.962 9.463 7.973 9.463 5.008 0 7.972-3.878 7.972-9.463 0-5.586-2.964-9.466-7.972-9.466zm0 15.288c-2.966 0-4.196-2.545-4.196-5.82 0-3.278 1.23-5.822 4.196-5.822 2.96 0 4.192 2.544 4.192 5.822 0 3.275-1.232 5.82-4.192 5.82zm22.787-4.693c0 2.935-1.439 4.746-3.773 4.746-2.338 0-3.751-1.862-3.751-4.798V95.356h-3.671v10.308c0 5.347 2.99 8.336 7.422 8.336 4.668 0 7.447-3.069 7.447-8.388V95.356h-3.674v10.308zm14.005-10.308h-5.741v18.358h5.478c4.723 0 9.389-2.729 9.389-9.179 0-6.715-3.881-9.18-9.126-9.18zm-.263 14.792h-1.809V98.924h1.942c3.878 0 5.478 1.86 5.478 5.611.001 3.357-1.757 5.613-5.611 5.613z"/></svg>