<svg xmlns="http://www.w3.org/2000/svg" fill="none" viewBox="0 0 200 68"><path fill="#000" d="M74.37.499c-1.252 0-2.5-.004-3.752-.004-2.966-.007-5.704 2.257-7.795 4.051a42.482 42.482 0 0 0-5.452 5.97 33.629 33.629 0 0 0-2.2-4.716 8.743 8.743 0 0 0-5.513-4.601 18.618 18.618 0 0 0-3.727-.128c-1.046-.004-4.02 0-4.02 0s-2.977-.004-4.02 0a18.618 18.618 0 0 0-3.728.128 8.77 8.77 0 0 0-5.513 4.6 33.33 33.33 0 0 0-2.183 4.714 42.61 42.61 0 0 0-5.452-5.969C18.92 2.75 16.187.486 13.215.493L9.464.497 4.106.505C2.803.511-.075.17.606 2.283c.167.511.747.97 1.077 1.395l1.078 1.503 1.513 2.532 3.32 6.31a91.77 91.77 0 0 0 8.605 13.12c2.444 3.01 5.394 6.049 9.045 7.541a6201.996 6201.996 0 0 0-8.248 15.343L9.369 63.839a5.357 5.357 0 0 0-.797 2.2c.003 1.412 2.106 1.454 3.11 1.46l3.257-.034 5.66-.063 3.361-.075a9.85 9.85 0 0 0 7.087-3.995c.542-.754 5.614-9.054 7.669-12.408l3.208-5.064 3.206 5.064 7.67 12.408a9.85 9.85 0 0 0 7.087 3.995c1.113.105 2.247.063 3.36.076 1.886.018 3.773.039 5.66.062l3.258.034c1.004-.006 3.109-.048 3.109-1.46a5.312 5.312 0 0 0-.798-2.202l-.358-.633-7.263-13.177c-2.75-5.114-5.503-10.229-8.257-15.343 3.656-1.494 6.604-4.531 9.047-7.541 3.24-4.12 6.12-8.51 8.608-13.12l3.324-6.31 1.513-2.532a19.51 19.51 0 0 1 1.075-1.503c.431-.406.795-.88 1.08-1.395C83.926.17 81.048.51 79.747.505L74.383.497l-.012.002z"/><path fill="#fff" d="m48.108 12.264.571-.097c.264-.055.523-.13.776-.224a4.52 4.52 0 0 0 1.413-.8 1.72 1.72 0 0 0 .469-.502c-1.656.032-2.889.021-3.704-.041-.223-.034-.385.538-.49 1.676-.01.088.526.032.967-.029l-.002.017zm-8.341 7.681a.123.123 0 0 0-.032.084c0 .03.021.072.046.095.078.073.164.138.252.197.526.348 1.141.528 1.77.52a3.094 3.094 0 0 0 2.038-.717c.063-.053.092-.134.046-.21a.151.151 0 0 0-.21-.004l-.238.178h-.002a3.03 3.03 0 0 1-3.26 0h-.005a2.592 2.592 0 0 1-.223-.178.136.136 0 0 0-.094-.032.14.14 0 0 0-.088.042v.025zm7.257-1.081a.336.336 0 0 1-.017-.042c.004.015.01.03.02.042h-.003zm3.901-4.62a2.286 2.286 0 0 0-.632-.825 1.99 1.99 0 0 0-2.515.104 3.458 3.458 0 0 0-.708 1.048 6.486 6.486 0 0 0-.61 2.903c.02.458.198.895.503 1.237.401.365.906.597 1.445.664.532.16 1.101.137 1.614-.069.511-.373.853-.933.952-1.557a6.42 6.42 0 0 0 .306-2.268 3.681 3.681 0 0 0-.357-1.258l.002.021z"/><path fill="#fff" d="M49.089 16.089c.261-.1.532-.175.806-.227-.588.042-.895-.195-.95-.708l-.108-1.048c.02.465-.07.928-.26 1.352a.776.776 0 0 1-.285.283l-.35.11c-.13.047-.265.077-.402.089.643-.057.988.105 1.044.46l.21 1.018c.011-.797.12-1.227.316-1.308l-.021-.021zm.804 1.588-.063-.66a1.98 1.98 0 0 1-.153.838.468.468 0 0 1-.21.179l-.206.063a1.209 1.209 0 0 1-.252.054c.39-.034.63.063.63.283l.112.62c0-.49.063-.748.195-.796.158-.065.323-.113.492-.143-.362.021-.555-.13-.589-.419M36.43 12.293c-.113-1.157-.273-1.73-.492-1.677-.84.063-2.048.074-3.708.042.121.196.28.366.467.501.42.35.898.62 1.414.8.252.094.51.168.773.225.054.013.294.057.571.096.42.063.977.12.973.03l.002-.017zm.13 6.594.017-.042a.327.327 0 0 1-.014.042h-.003zm-4.252-3.381a6.337 6.337 0 0 0 .307 2.268 2.366 2.366 0 0 0 .95 1.557c.514.206 1.084.21 1.613.07a2.774 2.774 0 0 0 1.47-.665c.306-.342.483-.78.503-1.237a6.216 6.216 0 0 0-.63-2.903 3.268 3.268 0 0 0-.709-1.069 1.987 1.987 0 0 0-2.512-.104 2.216 2.216 0 0 0-.63.825 3.62 3.62 0 0 0-.36 1.258h-.002z"/><path fill="#fff" d="M34.497 16.089a4.743 4.743 0 0 0-.807-.226c.589.041.895-.195.95-.709l.11-1.048c-.022.465.069.929.264 1.352a.786.786 0 0 0 .28.283l.35.111c.13.046.265.075.404.088-.643-.056-.992.105-1.045.461l-.21 1.017c-.01-.797-.12-1.226-.315-1.308l.019-.021zm-.807 1.589.067-.66c-.009.286.044.571.154.836.046.071.109.132.185.178l.21.063c.084.027.168.046.252.054-.393-.033-.63.063-.63.283l-.11.62c0-.49-.067-.748-.195-.796a2.315 2.315 0 0 0-.492-.142c.362.02.557-.13.589-.42l-.03-.016zM9.617 63.965l-.511 1.042c-.15.322-.236.67-.256 1.025v.004a.829.829 0 0 0 .262.625c.208.175.452.3.715.369a7.394 7.394 0 0 0 1.855.19l.336.002 8.583-.1.588-.002.693.002 2.055-.076c2.732-.239 5.263-1.676 6.892-3.881.386-.583.761-1.172 1.126-1.767l2.13-3.442 4.4-7.179 3.208-5.068a.294.294 0 0 1 .235-.13c.095-.004.181.05.21.13l3.215 5.068 6.528 10.619 1.128 1.767a9.531 9.531 0 0 0 6.887 3.883c.684.058 1.37.083 2.055.076l.698-.002.588.002 5.66.063 2.942.035.336-.002c.462.006.925-.024 1.382-.09a2.284 2.284 0 0 0 1.19-.472.816.816 0 0 0 .262-.624v-.008a3.12 3.12 0 0 0-.252-1.049c-.151-.362-.347-.725-.513-1.033l-.353-.605-7.27-13.205c-2.752-5.114-5.502-10.229-8.252-15.343a.278.278 0 0 1-.015-.224.284.284 0 0 1 .156-.163c3.578-1.46 6.505-4.465 8.935-7.458a91.375 91.375 0 0 0 8.583-13.085l2.515-4.825a31.909 31.909 0 0 1-7.076 7.587c-4.055 3.26-10.926 6.498-20.6 9.642-9.316 3.036-16.168 6.571-20.557 10.605l-4.4 3.905c-.93.97-1.845 1.956-2.744 2.956a91.33 91.33 0 0 0-6.23 7.918l-2.13 3.018-4.832 8.672-.353.62"/><path fill="#000" d="M82.783 2.134a1.762 1.762 0 0 1-.376.555l-.622.692-.004.004c-.395.495-.763 1.01-1.105 1.543h.002l-1.521 2.55-3.326 6.313a90.903 90.903 0 0 1-8.562 13.052c-2.422 2.989-5.328 5.961-8.85 7.399a.496.496 0 0 0-.277.29.553.553 0 0 0 .03.418c2.756 5.11 5.509 10.225 8.257 15.343l7.27 13.184.352.622.504 1.017c.137.296.218.615.238.94v.011a.597.597 0 0 1-.193.468 2.132 2.132 0 0 1-1.08.419c-.448.063-.897.09-1.35.088h-.367c-.954 0-1.916-.025-2.882-.034l-5.66-.063-.513-.004-.799.002c-.682 0-1.357-.008-2.01-.07a9.367 9.367 0 0 1-6.734-3.793l-.385-.586-7.26-11.788-3.215-5.072a.496.496 0 0 0-.832 0c-.002.004-2.43 3.793-3.215 5.072l-4.393 7.139-2.129 3.437-.735 1.17-.384.587a9.357 9.357 0 0 1-6.734 3.793 21.05 21.05 0 0 1-2.011.072l-.798-.002-.513.004c-1.887.016-3.773.037-5.66.063l-2.883.033h-.367a7.188 7.188 0 0 1-1.797-.184 1.511 1.511 0 0 1-.63-.319.585.585 0 0 1-.19-.47v-.008c.022-.325.102-.645.238-.943.147-.35.336-.706.5-1.017l.351-.62 7.27-13.184 8.248-15.342a.532.532 0 0 0 .032-.42.44.44 0 0 0-.277-.289c-3.522-1.435-6.43-4.408-8.85-7.399a91.288 91.288 0 0 1-8.558-13.051L4.702 7.443l-1.52-2.549a18.572 18.572 0 0 0-1.106-1.543c-.2-.255-.43-.482-.624-.691a1.718 1.718 0 0 1-.374-.554 1.426 1.426 0 0 1-.08-.43.463.463 0 0 1 .105-.324 1.22 1.22 0 0 1 .681-.308c.394-.069.794-.1 1.194-.093l1.134.017L9.47.96c1.25 0 2.5 0 3.75-.002h.015a7.82 7.82 0 0 1 3.964 1.283 26.318 26.318 0 0 1 3.496 2.649 41.892 41.892 0 0 1 5.388 5.902.493.493 0 0 0 .847-.134 32.927 32.927 0 0 1 2.168-4.643L29.106 6c1.004-1.985 3.036-3.91 5.175-4.343a8.825 8.825 0 0 1 1.782-.147l1.848.03h8.041l1.849-.03a8.781 8.781 0 0 1 1.78.147c2.138.434 4.172 2.356 5.176 4.343l.009.016a33.118 33.118 0 0 1 2.168 4.643c.063.168.21.29.385.314a.496.496 0 0 0 .462-.18 41.937 41.937 0 0 1 5.385-5.902 26.512 26.512 0 0 1 3.5-2.65A7.86 7.86 0 0 1 70.631.959h.012a3363.463 3363.463 0 0 1 9.115.01h.038l1.092-.017a4.799 4.799 0 0 1 1.502.177c.14.042.268.119.37.224a.46.46 0 0 1 .103.325 1.444 1.444 0 0 1-.08.43v.027zm.723-1.392a2.098 2.098 0 0 0-1.231-.629 7.008 7.008 0 0 0-1.387-.111l-1.135.017L74.39.01c-1.252 0-2.52-.004-3.752-.004h.002-.014a8.797 8.797 0 0 0-4.474 1.425 27.837 27.837 0 0 0-3.634 2.725 39.688 39.688 0 0 0-4.984 5.376 35.598 35.598 0 0 0-1.918-3.982A9.218 9.218 0 0 0 49.77.708a9.373 9.373 0 0 0-1.98-.167L45.943.57h-8.045c-.578 0-1.204-.03-1.845-.03a9.534 9.534 0 0 0-1.983.168 9.216 9.216 0 0 0-5.852 4.859 36.09 36.09 0 0 0-1.912 3.968 39.527 39.527 0 0 0-4.983-5.377 25.756 25.756 0 0 0-3.63-2.724A8.797 8.797 0 0 0 13.217.008h-.027L9.45.012 4.093.021h-.036C3.77.02 3.38.004 2.965.004a5.665 5.665 0 0 0-1.836.233 1.828 1.828 0 0 0-.788.51c-.228.268-.349.611-.34.963.004.248.046.494.125.73.13.338.326.647.578.907l.58.64c.374.467.725.955 1.05 1.46l1.503 2.516 3.32 6.288a92.246 92.246 0 0 0 8.652 13.19c2.353 2.896 5.202 5.843 8.75 7.453-2.675 4.96-5.336 9.924-7.984 14.89L8.95 63.617l-.542 1.1c-.19.415-.295.86-.311 1.317v.02a1.59 1.59 0 0 0 .495 1.168 3.016 3.016 0 0 0 1.602.677c.495.07.998.105 1.5.097h.374l8.55-.099.505-.002h.798l2.106-.078a10.33 10.33 0 0 0 7.437-4.196l.42-.635 7.27-11.8 1.891-3.002.897-1.404.895 1.404 1.891 3.002 4.4 7.18 2.132 3.447.736 1.173.416.635a10.33 10.33 0 0 0 7.437 4.199c.7.06 1.403.085 2.105.077h.799l.504.002 8.556.099h.374a7.988 7.988 0 0 0 2.065-.223 2.465 2.465 0 0 0 1.038-.55c.325-.307.504-.734.498-1.18v-.011a3.513 3.513 0 0 0-.311-1.319 11.516 11.516 0 0 0-.546-1.102l-.366-.646-7.257-13.162-8.01-14.89c3.552-1.61 6.394-4.557 8.75-7.453a92.311 92.311 0 0 0 8.656-13.19l3.32-6.288 1.502-2.516a18.13 18.13 0 0 1 1.046-1.46v.004c.134-.174.357-.394.582-.642.252-.26.449-.567.578-.905a2.4 2.4 0 0 0 .126-.734 1.442 1.442 0 0 0-.34-.964l-.011-.025zM153.307 13.62c-2.164 1.132-2.969 3.039-2.969 8.312a8.464 8.464 0 0 1 2.721-1.643 11.62 11.62 0 0 0 2.779-1.507c1.828-1.335 2.11-3.056 2.11-5.952 0 0-2.979-.084-4.643.788M140.48 14.852a8.256 8.256 0 0 0-2.28 4.022l-5.841 22.568-4.857-18.47c-.473-1.964-1.324-4.391-2.673-6.032-1.718-2.092-5.21-2.222-5.584-2.222-.374 0-3.866.13-5.585 2.222-1.349 1.64-2.202 4.066-2.675 6.032l-4.832 18.47-5.841-22.568a8.231 8.231 0 0 0-2.277-4.024c-2.858-2.515-7.148-1.976-7.148-1.976l11.182 42.175s3.689.264 5.534-.675c2.424-1.233 3.578-2.184 5.046-7.923l5.306-21.211c.168-.528.382-1.792 1.313-1.792.951 0 1.147 1.261 1.313 1.792.336 1.048 3.998 16.097 5.305 21.211 1.466 5.737 2.622 6.69 5.042 7.923 1.845.939 5.535.675 5.535.675l11.177-42.175s-4.286-.54-7.148 1.976l-.012.002zm17.482 4.888a7.13 7.13 0 0 1-2.296 1.97c-1.025.57-2.009.958-3.063 1.463-1.769.847-2.248 1.79-2.248 3.228v28.631s2.821.356 4.664-.583c2.374-1.207 2.941-2.372 2.941-7.616l.002-27.093zm27.852 14.324L200 13.014s-5.988-1.017-8.95 1.677a33.87 33.87 0 0 0-4.02 4.82l-5.219 7.508a1.17 1.17 0 0 1-1.113.818c-.511 0-.96-.33-1.114-.839l-5.204-7.468a33.852 33.852 0 0 0-4.019-4.82c-2.942-2.692-8.951-1.677-8.951-1.677l14.186 21.05-14.15 20.985s6.236.784 9.198-1.887a28.033 28.033 0 0 0 3.734-4.523l5.221-7.508a1.172 1.172 0 0 1 1.113-.817c.511 0 .961.329 1.114.838l5.219 7.508a31.468 31.468 0 0 0 3.845 4.523c2.941 2.692 9.091 1.887 9.091 1.887l-14.148-20.985"/></svg>