<svg xmlns="http://www.w3.org/2000/svg" fill="none" viewBox="0 0 238 54"><path fill="#1A1A1A" fill-rule="evenodd" d="m9.85 32.367-2.327 4.37V51.42H0V3.62h7.524v20.827l9.85-20.828h7.524L14.432 24.924l10.464 26.495h-7.729L9.85 32.367zm25.669 8.058c0 1.73.353 2.948 1.06 3.653.706.706 1.653 1.059 2.838 1.059 1.186 0 2.132-.353 2.839-1.059.707-.705 1.06-1.923 1.06-3.653V14.612c0-1.73-.352-2.947-1.06-3.653-.706-.706-1.652-1.058-2.838-1.058-1.185 0-2.132.352-2.838 1.058-.707.706-1.06 1.923-1.06 3.653l-.001 25.813zm-7.524-25.334c0-3.87.98-6.84 2.941-8.912 1.961-2.071 4.788-3.107 8.482-3.107 3.693 0 6.52 1.036 8.481 3.107 1.961 2.071 2.941 5.042 2.941 8.912v24.856c0 3.87-.981 6.84-2.942 8.912-1.96 2.071-4.788 3.107-8.482 3.107-3.693 0-6.52-1.036-8.48-3.107-1.962-2.072-2.942-5.042-2.942-8.912V15.09zm35.177 1.707-.001 34.621h-6.772l.002-47.8h9.439l7.728 28.612V3.618h6.704L80.27 51.42h-7.73l-9.37-34.622zM85.49 15.09c0-3.87.923-6.84 2.77-8.912 1.847-2.071 4.617-3.107 8.31-3.107 3.694 0 6.464 1.036 8.311 3.107 1.847 2.071 2.77 5.042 2.77 8.912v1.502h-7.114l.001-1.98c0-1.73-.331-2.948-.992-3.654-.661-.705-1.585-1.058-2.77-1.058-1.186 0-2.11.353-2.77 1.058-.662.706-.992 1.924-.992 3.654 0 1.638.364 3.084 1.094 4.336a18.053 18.053 0 0 0 2.736 3.55 71.659 71.659 0 0 0 3.522 3.347 33.497 33.497 0 0 1 3.523 3.653c1.094 1.32 2.006 2.823 2.736 4.507.729 1.685 1.094 3.665 1.094 5.941 0 3.87-.947 6.84-2.839 8.912-1.892 2.071-4.685 3.107-8.379 3.107s-6.487-1.036-8.379-3.107c-1.892-2.072-2.838-5.042-2.838-8.912V37.01h7.113v3.414c0 1.73.354 2.937 1.06 3.62.707.682 1.653 1.024 2.839 1.024s2.132-.342 2.839-1.025c.706-.682 1.06-1.889 1.06-3.619 0-1.639-.365-3.084-1.094-4.336a18.053 18.053 0 0 0-2.736-3.551 71.533 71.533 0 0 0-3.523-3.346 33.446 33.446 0 0 1-3.522-3.654c-1.095-1.32-2.006-2.822-2.736-4.506-.73-1.685-1.094-3.665-1.094-5.941zm25.122-11.473h23.256v6.829h-7.866l-.001 40.972h-7.524l.001-40.972h-7.866V3.618zm43.041 47.801a21.421 21.421 0 0 0-.274-.887 6.85 6.85 0 0 1-.239-1.025 12.69 12.69 0 0 1-.137-1.57 68.489 68.489 0 0 1-.034-2.39v-7.512c0-2.23-.387-3.801-1.162-4.712-.776-.91-2.03-1.366-3.762-1.366h-2.6V51.42h-7.524l.001-47.8h11.355c3.921 0 6.76.91 8.515 2.73 1.756 1.822 2.633 4.576 2.633 8.263v3.756c0 4.917-1.641 8.15-4.925 9.697 1.915.774 3.226 2.037 3.933 3.79.707 1.753 1.06 3.88 1.06 6.385v7.375c0 1.183.045 2.22.137 3.107a9.97 9.97 0 0 0 .684 2.697h-7.661zm-8.206-40.972-.001 14.682h2.941c1.414 0 2.52-.364 3.318-1.093.798-.728 1.197-2.049 1.197-3.96v-4.712c0-1.73-.308-2.982-.923-3.756-.616-.774-1.585-1.161-2.907-1.161h-3.625zm27.926-6.829-.001 36.875c0 1.73.353 2.937 1.06 3.62.707.683 1.653 1.024 2.839 1.024 1.185 0 2.131-.341 2.838-1.024.707-.683 1.06-1.89 1.06-3.62l.001-36.875h7.114l-.001 36.397c0 3.87-.946 6.84-2.839 8.912-1.892 2.071-4.685 3.107-8.379 3.107-3.693 0-6.486-1.036-8.379-3.107-1.892-2.072-2.838-5.042-2.838-8.912l.001-36.397h7.524zm41.371 0H238v6.829h-7.866l-.001 40.972h-7.524l.001-40.972h-7.866V3.618zM188.953 27l19.544-27-.002 54-19.542-27z" clip-rule="evenodd"/></svg>